<svg width="96" height="96" viewBox="0 0 96 96" fill="none" xmlns="http://www.w3.org/2000/svg">
<mask id="mask0_565_132308" style="mask-type:luminance" maskUnits="userSpaceOnUse" x="0" y="0" width="96" height="96">
<rect width="96" height="96" fill="white"/>
</mask>
<g mask="url(#mask0_565_132308)">
<path fill-rule="evenodd" clip-rule="evenodd" d="M30.7992 45.7874C30.5676 45.021 30.4617 44.2221 30.4857 43.4218L30.5427 34.7291C30.7582 32.3421 29.962 29.9742 28.3481 28.2024C26.4043 26.5953 23.9065 25.8173 21.3939 26.0363C20.0001 26.0293 18.6111 26.2017 17.2613 26.5493C16.1113 26.8318 14.9938 27.233 13.9267 27.7464C13.6318 27.8782 13.3692 28.0727 13.1572 28.3164C13.0199 28.5997 12.9609 28.9146 12.9862 29.2284V30.5394C12.9862 31.081 13.1572 31.366 13.5562 31.366H13.9552L14.8957 31.024C15.821 30.6475 16.7738 30.3426 17.7458 30.1119C18.6796 29.8892 19.6359 29.7745 20.5959 29.7699C22.1439 29.6051 23.6958 30.0441 24.928 30.9955C25.8843 32.1931 26.3343 33.7171 26.1821 35.2421V37.1801C25.1275 36.9521 24.13 36.7526 23.1325 36.6101C22.1887 36.4731 21.236 36.4064 20.2824 36.4106C17.9307 36.2862 15.6131 37.0148 13.7557 38.4627C12.1717 39.8312 11.2917 41.8427 11.3616 43.9348C11.2578 45.8328 11.9618 47.6862 13.2997 49.0365C14.7363 50.3628 16.6484 51.0515 18.6008 50.946C21.6324 50.9939 24.5155 49.6365 26.4101 47.2694C26.6951 47.8679 26.9516 48.381 27.2081 48.837C27.4828 49.2814 27.808 49.6927 28.1771 50.0625C28.3787 50.2934 28.6687 50.428 28.9751 50.433C29.2208 50.4273 29.4592 50.3479 29.6592 50.205L31.3407 49.0935C31.6318 48.9272 31.8233 48.6293 31.8537 48.2955C31.8448 48.0812 31.7757 47.8737 31.6542 47.6969C31.3143 47.0865 31.0282 46.4475 30.7992 45.7874ZM22.5625 46.9844C21.6468 47.3065 20.683 47.4704 19.7124 47.4689C18.7162 47.5924 17.7117 47.3156 16.9193 46.6994C16.2075 45.9293 15.8554 44.8937 15.9503 43.8493C15.8728 42.6732 16.3595 41.5303 17.2613 40.7712C18.4118 39.9774 19.8011 39.6049 21.1944 39.7167H23.7025C24.5546 39.7895 25.4017 39.9132 26.2391 40.0872V41.2842C26.2529 42.0616 26.1667 42.8375 25.9826 43.5928C25.8238 44.2207 25.5102 44.7988 25.0705 45.2744C24.4044 46.0606 23.5377 46.6516 22.5625 46.9844ZM41.0595 50.319C40.6983 50.3526 40.3364 50.2621 40.0335 50.0625C39.7441 49.7745 39.5459 49.4078 39.4634 49.0079L33.2503 28.4874C33.124 28.1388 33.0472 27.7742 33.0223 27.4043C33.0223 26.9768 33.2218 26.7488 33.6493 26.7488H36.2714C36.6326 26.7152 36.9945 26.8057 37.2974 27.0053C37.575 27.2978 37.7629 27.6638 37.8389 28.0598L42.3135 45.7874L46.5031 28.0883C46.5469 27.688 46.7282 27.3153 47.0162 27.0338C47.3297 26.8341 47.7005 26.7439 48.0707 26.7773H50.2083C50.5875 26.7439 50.9673 26.8339 51.2913 27.0338C51.5585 27.3298 51.7364 27.6954 51.8043 28.0883L55.9369 45.7874L60.5256 28.0028C60.6015 27.6068 60.7895 27.2408 61.0671 26.9483C61.37 26.7487 61.7319 26.6582 62.0931 26.6918H64.5727C64.7514 26.6738 64.9289 26.737 65.0559 26.8641C65.183 26.9911 65.2462 27.1686 65.2282 27.3473C65.2389 27.4896 65.2389 27.6325 65.2282 27.7748C65.2282 27.7748 65.2282 28.1453 65.0572 28.4304L58.616 48.9509C58.54 49.347 58.3521 49.713 58.0745 50.0055C57.7682 50.1973 57.409 50.287 57.0485 50.262H54.7684C54.3936 50.3019 54.0175 50.2002 53.7139 49.977C53.4314 49.6915 53.2511 49.3208 53.2008 48.9224L49.0682 31.822L44.9641 48.9224C44.9138 49.3208 44.7335 49.6915 44.4511 49.977C44.1451 50.1953 43.7709 50.2965 43.3966 50.262L41.0595 50.319ZM71.1564 50.547C72.5023 50.8566 73.8794 51.0096 75.2605 51.003L75.175 51.0315C76.4816 51.0159 77.7786 50.8045 79.0226 50.4045C80.0599 50.0864 81.0271 49.5738 81.8727 48.894C82.6898 48.2743 83.353 47.4746 83.8107 46.5569C84.2774 45.5989 84.5117 44.5443 84.4948 43.4788C84.5181 42.1318 84.0863 40.8164 83.2692 39.7452C82.1901 38.4971 80.7598 37.6033 79.1651 37.1801L75.403 35.9831C74.364 35.6974 73.3942 35.2028 72.5529 34.5296C72.0407 34.0382 71.7523 33.3583 71.7549 32.6485C71.6978 31.6799 72.1802 30.759 73.0089 30.2544C74.1042 29.7093 75.321 29.4542 76.543 29.5134C78.3066 29.4866 80.0556 29.8364 81.6732 30.5394C81.9877 30.7235 82.3371 30.84 82.6992 30.8815C83.0982 30.8815 83.2977 30.5965 83.2977 30.0264V28.7724C83.3077 28.4622 83.2286 28.1556 83.0697 27.8889C82.839 27.6306 82.5699 27.4095 82.2717 27.2334L81.1602 26.7773L79.6496 26.3498L77.9111 26.0648C77.3228 26.0233 76.7323 26.0233 76.144 26.0648C75.0068 26.0524 73.8738 26.206 72.7809 26.5208C71.7541 26.7957 70.7876 27.2597 69.9308 27.8889C69.1485 28.4795 68.4981 29.2269 68.0213 30.0834C67.5388 30.9549 67.2932 31.9376 67.3088 32.9335C67.3168 34.3377 67.7877 35.7001 68.6483 36.8096C69.7427 38.1317 71.2304 39.0703 72.8949 39.4887L76.7425 40.7142C77.7325 40.9638 78.6501 41.4421 79.4216 42.1108C79.9037 42.6041 80.1615 43.2741 80.1341 43.9633C80.1603 44.9841 79.6384 45.9408 78.7661 46.4714C77.5858 47.1322 76.2401 47.4389 74.89 47.3549C73.8263 47.3539 72.7657 47.2393 71.7264 47.0129C70.7456 46.8149 69.7898 46.5091 68.8763 46.1009L68.2208 45.8159C68.0509 45.7887 67.8777 45.7887 67.7078 45.8159C67.3088 45.8159 67.1092 46.1009 67.1092 46.6424V47.982C67.1113 48.2477 67.1695 48.5099 67.2803 48.7515C67.4789 49.0727 67.7658 49.33 68.1068 49.4925C69.0712 49.9797 70.097 50.3344 71.1564 50.547Z" fill="#242F3D"/>
<path fill-rule="evenodd" clip-rule="evenodd" d="M80.1908 64.113C70.6516 70.5954 59.3756 74.0428 47.8424 74.0028C33.2603 74.0817 19.1738 68.7154 8.34024 58.9544C7.51372 58.2134 8.34024 57.1873 9.25227 57.7574C21.2764 64.6466 34.8966 68.2629 48.7544 68.2457C59.1135 68.2035 69.3617 66.1113 78.9083 62.0895C80.3903 61.4625 81.6444 63.0585 80.1908 64.113Z" fill="#FF9903"/>
<path fill-rule="evenodd" clip-rule="evenodd" d="M83.839 60.0382C82.699 58.5846 76.4288 59.3541 73.6072 59.6961C72.7522 59.6961 72.6382 59.0406 73.4077 58.4991C78.3953 54.9935 86.6036 55.991 87.6581 57.1881C88.7126 58.3851 87.4016 66.5933 82.699 70.5265C81.9864 71.125 81.3024 70.783 81.6159 70.0134C82.585 67.3059 84.9505 61.4062 83.839 60.0382Z" fill="#FF9903"/>
</g>
</svg>
