<svg width="96" height="96" viewBox="0 0 96 96" fill="none" xmlns="http://www.w3.org/2000/svg">
<mask id="mask0_565_133911" style="mask-type:luminance" maskUnits="userSpaceOnUse" x="0" y="0" width="96" height="96">
<rect width="96" height="96" fill="white"/>
</mask>
<g mask="url(#mask0_565_133911)">
<path d="M45.01 73.6554C55.2881 71.8398 63.7773 70.3373 63.8748 70.3166L64.0521 70.2791L54.3485 58.7369C49.0115 52.3888 44.6449 47.1702 44.6449 47.1401C44.6449 47.0832 54.6647 19.4909 54.721 19.3928C54.7398 19.3599 61.5586 31.1323 71.2501 47.9298C80.3235 63.6559 87.8041 76.6222 87.8736 76.7437L88 76.9646L57.1612 76.9606L26.3225 76.9566L45.01 73.6554ZM8 70.1356C8 70.1194 12.5723 62.1823 18.1606 52.4976L28.3212 34.8891L40.1623 24.9521C46.6748 19.4867 52.0208 15.0084 52.0423 15.0002C52.0637 14.9921 51.978 15.2077 51.8519 15.4794C51.7257 15.7511 45.9398 28.1614 38.9942 43.0578L26.3659 70.1421L17.1829 70.1537C12.1323 70.16 8 70.1519 8 70.1356Z" fill="#0089D6"/>
</g>
</svg>
