<svg width="96" height="96" viewBox="0 0 96 96" fill="none" xmlns="http://www.w3.org/2000/svg">
<mask id="mask0_565_127655" style="mask-type:luminance" maskUnits="userSpaceOnUse" x="0" y="0" width="96" height="96">
<rect width="96" height="96" fill="white"/>
</mask>
<g mask="url(#mask0_565_127655)">
<path d="M58.7634 33.7294H61.2029L68.1564 26.7758L68.4974 23.8225C55.5556 12.3982 35.8044 13.6324 24.3801 26.5742C21.2059 30.1662 18.9056 34.4449 17.6475 39.0741C18.4206 38.7572 19.2802 38.7044 20.087 38.9301L33.994 36.6347C33.994 36.6347 34.6999 35.4629 35.0696 35.535C41.2548 28.7399 51.6659 27.9476 58.8115 33.7294H58.7634Z" fill="#EA4335"/>
<path d="M78.0641 39.0744C76.465 33.1869 73.1851 27.895 68.6231 23.8516L58.8651 33.6095C62.9853 36.9758 65.3336 42.0517 65.2327 47.3725V49.106C70.0301 49.106 73.9198 52.9958 73.9198 57.7931C73.9198 62.5905 70.0301 66.4802 65.2327 66.4802H47.8586L46.125 68.2378V78.6585L47.8586 80.392H65.2327C77.7087 80.4881 87.9037 70.4516 87.9997 57.9756C88.0573 50.3978 84.3261 43.3099 78.0641 39.0744Z" fill="#4285F4"/>
<path d="M30.4604 80.2816H47.8345V66.3745H30.4604C29.2214 66.3745 28.0017 66.1056 26.8732 65.5918L24.4337 66.3505L17.4321 73.304L16.8223 75.7435C20.7456 78.7113 25.5382 80.3056 30.4604 80.2816Z" fill="#34A853"/>
<path d="M30.46 35.1701C17.9792 35.2421 7.92835 45.4179 8.00038 57.8987C8.0436 64.8666 11.2947 71.4263 16.8219 75.6714L26.8968 65.5965C22.5269 63.6228 20.582 58.4749 22.5557 54.105C24.5294 49.735 29.6773 47.7901 34.0472 49.7638C35.9729 50.633 37.5144 52.1793 38.3884 54.105L48.4633 44.0301C44.1797 38.4212 37.5144 35.1413 30.46 35.1701Z" fill="#FBBC05"/>
</g>
</svg>
