<svg width="40" height="40" viewBox="0 0 40 40" fill="none" xmlns="http://www.w3.org/2000/svg">
<path d="M39.5 20C39.5 30.7696 30.7696 39.5 20 39.5C9.23045 39.5 0.5 30.7696 0.5 20C0.5 9.23045 9.23045 0.5 20 0.5C30.7696 0.5 39.5 9.23045 39.5 20Z" stroke="#CCCCCC"/>
<path d="M8.93476 15.9081C8.58278 15.1335 7.71277 14.7827 6.90043 15.145C6.08709 15.5078 5.78781 16.4131 6.1552 17.1882L9.56614 24.6306C10.1026 25.7969 10.6678 26.4082 11.7287 26.4082C12.8622 26.4082 13.3564 25.7425 13.8923 24.6306C13.8923 24.6306 16.8673 18.1279 16.8971 18.06C16.9274 17.9911 17.0229 17.781 17.3256 17.783C17.5817 17.7845 17.7969 17.9896 17.7969 18.2651V24.6241C17.7969 25.6042 18.3383 26.4082 19.3803 26.4082C20.4214 26.4082 20.9841 25.6042 20.9841 24.6241V19.4204C20.9841 18.4168 21.7005 17.7656 22.6769 17.7656C23.6533 17.7656 24.3031 18.4403 24.3031 19.4204V24.6241C24.3031 25.6042 24.8465 26.4082 25.8865 26.4082C26.9276 26.4082 27.4933 25.6042 27.4933 24.6241V19.4204C27.4933 18.4168 28.2067 17.7656 29.1836 17.7656C30.1585 17.7656 30.8108 18.4403 30.8108 19.4204V24.6241C30.8108 25.6042 31.3537 26.4082 32.3947 26.4082C33.4352 26.4082 34 25.6042 34 24.6241V18.7018C34 16.5254 32.2565 15.0008 30.1585 15.0008C28.0631 15.0008 26.7506 16.456 26.7506 16.456C26.0531 15.5483 25.0916 15.0028 23.4644 15.0028C21.7473 15.0028 20.2444 16.456 20.2444 16.456C19.5464 15.5483 18.3582 15.0028 17.3744 15.0028C15.8526 15.0028 14.644 15.6745 13.9067 17.3668L11.7287 22.5206L8.93476 15.9081Z" fill="#696566"/>
</svg>
